<svg width="692" height="465" viewBox="0 0 692 465" fill="none" xmlns="http://www.w3.org/2000/svg">
<g id="Group 22">
<g id="Group 21">
<g id="Group 20">
<rect id="Rectangle" x="265" y="10" width="635" height="434" rx="12" fill="#191D36"/>
<rect id="Rectangle Copy 16" x="268" y="13" width="629" height="428" rx="10" fill="#0B0E21"/>
<rect id="Rectangle Copy 17" x="281" y="26" width="603" height="402" rx="5" fill="#16171B"/>
<g id="Group 19 + Group 11 Mask">
<rect id="Mask" x="284" y="28" width="597.554" height="396.861" rx="3" fill="#EBEDF4"/>
<mask id="mask0_0_382" style="mask-type:luminance" maskUnits="userSpaceOnUse" x="284" y="28" width="598" height="397">
<rect id="Mask_2" x="284" y="28" width="597.554" height="396.861" rx="3" fill="white"/>
</mask>
<g mask="url(#mask0_0_382)">
<g id="Group 19">
<g id="Group 18">
<rect id="Rectangle_2" x="413" y="117" width="331" height="47" rx="5" fill="white"/>
<g id="Group 14">
<g id="Group 9">
<rect id="Rectangle Copy 2" x="429" y="135" width="53" height="5" rx="2.5" fill="#B1B4C7"/>
<rect id="Rectangle Copy 3" x="429" y="144" width="34" height="5" rx="2.5" fill="#D4D7E6"/>
</g>
<g id="Group 9 Copy">
<rect id="Rectangle Copy 2_2" x="504" y="135" width="53" height="5" rx="2.5" fill="#B1B4C7"/>
<rect id="Rectangle Copy 3_2" x="504" y="144" width="34" height="5" rx="2.5" fill="#D4D7E6"/>
</g>
<g id="Group 9 Copy 2">
<rect id="Rectangle Copy 2_3" x="606" y="135" width="53" height="5" rx="2.5" fill="#B1B4C7"/>
<rect id="Rectangle Copy 3_3" x="606" y="144" width="34" height="5" rx="2.5" fill="#D4D7E6"/>
</g>
<g id="Group 9 Copy 3">
<rect id="Rectangle Copy 2_4" x="679" y="135" width="53" height="5" rx="2.5" fill="#B1B4C7"/>
<rect id="Rectangle Copy 3_4" x="679" y="144" width="34" height="5" rx="2.5" fill="#D4D7E6"/>
</g>
</g>
</g>
<g id="Rectangle_3">
<rect id="Mask_3" x="413" y="178" width="331" height="184" rx="5" fill="white"/>
<mask id="mask1_0_382" style="mask-type:luminance" maskUnits="userSpaceOnUse" x="413" y="178" width="331" height="184">
<rect id="Mask_4" x="413" y="178" width="331" height="184" rx="5" fill="white"/>
</mask>
<g mask="url(#mask1_0_382)">
<g id="Group 15">
<rect id="Rectangle_4" x="397" y="210" width="184" height="24" rx="12" fill="#FF5E5E"/>
<rect id="Rectangle Copy 20" x="397" y="306" width="184" height="24" rx="12" fill="#FF5E5E"/>
<rect id="Rectangle Copy 11" x="589" y="210" width="24" height="24" rx="12" fill="#BC4747"/>
<rect id="Rectangle Copy 13" x="589" y="242" width="88" height="24" rx="12" fill="#FF5E5E"/>
<rect id="Rectangle Copy 14" x="467" y="241.547" width="114" height="24" rx="12" fill="#BC4747"/>
<rect id="Rectangle Copy 15" x="627" y="274.53" width="50" height="24" rx="12" fill="#FF5E5E"/>
<rect id="Rectangle Copy 19" x="380" y="273.925" width="79" height="24" rx="12" fill="#FF5E5E"/>
<rect id="Rectangle Copy 12" x="685" y="242" width="24" height="24" rx="12" fill="#BC4747"/>
</g>
</g>
</g>
<rect id="Rectangle_5" x="413" y="42" width="77" height="5" rx="2.5" fill="#CBCEDC"/>
<g id="Group 13">
<rect id="Rectangle Copy" x="413" y="68" width="66" height="19" rx="9.5" fill="#8C90A3"/>
<rect id="Rectangle Copy 9" x="489" y="68.2883" width="31" height="19" rx="9.5" fill="#8C90A3"/>
<rect id="Rectangle Copy 10" x="528" y="68" width="31" height="19" rx="9.5" fill="#8C90A3"/>
</g>
</g>
<g id="Group 11">
<rect id="Rectangle_6" x="284" y="28" width="107" height="397" fill="#353740"/>
<g id="Group 12">
<rect id="Rectangle_7" x="299" y="108" width="77" height="5" rx="2.5" fill="#4A4E5D"/>
<rect id="Rectangle Copy 4" x="299" y="127" width="77" height="5" rx="2.5" fill="#4A4E5D"/>
<rect id="Rectangle Copy 5" x="299" y="146" width="77" height="5" rx="2.5" fill="#4A4E5D"/>
<rect id="Rectangle Copy 6" x="299" y="165" width="77" height="5" rx="2.5" fill="#4A4E5D"/>
<rect id="Rectangle Copy 7" x="299" y="184" width="77" height="5" rx="2.5" fill="#4A4E5D"/>
<rect id="Rectangle Copy 8" x="299" y="406" width="77" height="5" rx="2.5" fill="#4A4E5D"/>
<g id="Group 10">
<g id="Group 9_2">
<rect id="Rectangle Copy 2_5" x="323" y="67" width="53" height="5" rx="2.5" fill="#7B7F90"/>
<rect id="Rectangle Copy 3_5" x="323" y="76" width="34" height="5" rx="2.5" fill="#4A4E5D"/>
</g>
<circle id="Oval" cx="308" cy="74" r="9" fill="#FF5E5E"/>
</g>
<rect id="Rectangle Copy_2" x="299" y="40" width="77" height="9" rx="4.5" fill="#8C90A3"/>
</g>
</g>
</g>
</g>
<g id="Group 53">
<rect id="Rectangle_8" opacity="0.0979818" x="571" y="18" width="15.64" height="4" rx="2" fill="#4A5166"/>
<rect id="Rectangle Copy 18" opacity="0.0979818" x="590.32" y="18" width="3.68" height="4" rx="1.84" fill="#4A5166"/>
</g>
<g id="Rectangle_9">
<path id="Mask_5" d="M184 443C184 441.343 185.343 440 187 440H956.629C958.286 440 959.629 441.343 959.629 443V459.006H184V443Z" fill="#242942"/>
<mask id="mask2_0_382" style="mask-type:luminance" maskUnits="userSpaceOnUse" x="184" y="440" width="776" height="20">
<path id="Mask_6" d="M184 443C184 441.343 185.343 440 187 440H956.629C958.286 440 959.629 441.343 959.629 443V459.006H184V443Z" fill="white"/>
</mask>
<g mask="url(#mask2_0_382)">
<rect id="Rectangle_10" x="508.47" y="393.436" width="126.689" height="57.9678" rx="10" fill="#2E334F"/>
</g>
</g>
<path id="Rectangle_11" d="M184 458H960C960 461.866 956.866 465 953 465H191C187.134 465 184 461.866 184 458Z" fill="#1A1C27"/>
</g>
</g>
<g id="Group 17">
<g id="Rectangle_12" filter="url(#filter0_d_0_382)">
<rect x="44" y="10.2105" width="167" height="341" rx="12" fill="#242942"/>
</g>
<g id="Group 16">
<rect id="Mask_7" x="50" y="16" width="155" height="330" rx="9" fill="#EBEDF4"/>
<mask id="mask3_0_382" style="mask-type:luminance" maskUnits="userSpaceOnUse" x="50" y="16" width="155" height="330">
<rect id="Mask_8" x="50" y="16" width="155" height="330" rx="9" fill="white"/>
</mask>
<g mask="url(#mask3_0_382)">
<g id="Group 16_2">
<rect id="Rectangle_13" x="50" y="16" width="155" height="77" fill="#353740"/>
<g id="Rectangle_14">
<rect id="Mask_9" x="58" y="124" width="140" height="184" rx="5" fill="white"/>
<mask id="mask4_0_382" style="mask-type:luminance" maskUnits="userSpaceOnUse" x="58" y="124" width="140" height="184">
<rect id="Mask_10" x="58" y="124" width="140" height="184" rx="5" fill="white"/>
</mask>
<g mask="url(#mask4_0_382)">
<g id="Group 15_2">
<rect id="Rectangle_15" width="184" height="24" rx="12" transform="matrix(-1 0 0 1 334 156)" fill="#FF5E5E"/>
<rect id="Rectangle Copy 20_2" width="184" height="24" rx="12" transform="matrix(-1 0 0 1 334 252)" fill="#FF5E5E"/>
<rect id="Rectangle Copy 11_2" width="24" height="24" rx="12" transform="matrix(-1 0 0 1 142 156)" fill="#BC4747"/>
<rect id="Rectangle Copy 13_2" width="88" height="24" rx="12" transform="matrix(-1 0 0 1 142 188)" fill="#FF5E5E"/>
<rect id="Rectangle Copy 14_2" width="114" height="24" rx="12" transform="matrix(-1 0 0 1 264 187.547)" fill="#BC4747"/>
<rect id="Rectangle Copy 15_2" width="50" height="24" rx="12" transform="matrix(-1 0 0 1 104 220.53)" fill="#FF5E5E"/>
</g>
</g>
</g>
<rect id="Rectangle_16" x="58" y="68" width="140" height="47" rx="5" fill="white"/>
<rect id="Rectangle_17" x="87" y="37" width="77" height="5" rx="2.5" fill="#4A4E5D"/>
</g>
</g>
</g>
</g>
</g>
<defs>
<filter id="filter0_d_0_382" x="0" y="0.210526" width="267" height="441" filterUnits="userSpaceOnUse" color-interpolation-filters="sRGB">
<feFlood flood-opacity="0" result="BackgroundImageFix"/>
<feColorMatrix in="SourceAlpha" type="matrix" values="0 0 0 0 0 0 0 0 0 0 0 0 0 0 0 0 0 0 127 0" result="hardAlpha"/>
<feOffset dx="6" dy="40"/>
<feGaussianBlur stdDeviation="25"/>
<feColorMatrix type="matrix" values="0 0 0 0 0.24346 0 0 0 0 0.279313 0 0 0 0 0.375399 0 0 0 0.255293 0"/>
<feBlend mode="normal" in2="BackgroundImageFix" result="effect1_dropShadow_0_382"/>
<feBlend mode="normal" in="SourceGraphic" in2="effect1_dropShadow_0_382" result="shape"/>
</filter>
</defs>
</svg>
